<svg width="58" height="61" viewBox="0 0 58 61" fill="none" xmlns="http://www.w3.org/2000/svg">
<g style="mix-blend-mode:overlay" opacity="0.5">
<path d="M16.8186 58.374C17.4525 57.8529 17.9763 57.2107 18.3592 56.4849C18.7421 55.7591 18.9764 54.9642 19.0486 54.1468C19.3675 51.0138 20.9136 48.1346 23.349 46.138C25.7844 44.1415 28.911 43.1902 32.0456 43.4919C33.257 43.6071 34.4754 43.3618 35.5478 42.7867C36.6203 42.2117 37.4989 41.3327 38.0733 40.26C38.6477 39.1873 38.8923 37.9687 38.7765 36.7574C38.6607 35.5461 38.1896 34.396 37.4223 33.4516C36.6549 32.5072 35.6257 31.8106 34.4637 31.4492C33.3017 31.0879 32.059 31.0779 30.8914 31.4206C29.7238 31.7632 28.6834 32.4433 27.9011 33.3753C27.1187 34.3072 26.6291 35.4496 26.4939 36.6589C26.3455 38.22 25.8904 39.7364 25.1548 41.1212C24.4192 42.5061 23.4174 43.7321 22.2071 44.7291C20.9967 45.7261 19.6015 46.4743 18.1014 46.931C16.6013 47.3878 15.0257 47.5439 13.4651 47.3906C12.4614 47.3099 11.4532 47.4759 10.5284 47.8742C9.60361 48.2725 8.79027 48.8909 8.15916 49.6756C7.52812 50.4603 7.09853 51.3873 6.90787 52.376C6.71721 53.3648 6.77132 54.3851 7.06532 55.3481C7.35934 56.3112 7.88448 57.1877 8.59486 57.9013C9.30531 58.615 10.1794 59.1439 11.1411 59.4423C12.1029 59.7406 13.123 59.7993 14.1125 59.6131C15.1021 59.4269 16.0311 59.0015 16.8186 58.374Z" fill="white"/>
<path d="M18.8066 19.8487C18.3588 20.9948 18.2636 22.2485 18.5333 23.4491C18.803 24.6497 19.4253 25.7422 20.3202 26.5867C21.2153 27.4312 22.3421 27.989 23.5563 28.1886C24.7705 28.3882 26.0166 28.2204 27.1348 27.7067C28.561 27.0546 30.1018 26.6904 31.669 26.6349C33.2362 26.5795 34.799 26.8338 36.2676 27.3835C37.7363 27.9332 39.0821 28.7674 40.2277 29.8382C41.3734 30.909 42.2964 32.1954 42.9439 33.6237C43.4524 34.7306 44.2769 35.6623 45.3137 36.3017C46.3505 36.9411 47.5532 37.2595 48.7705 37.2169C49.9879 37.1744 51.1655 36.7727 52.155 36.0624C53.1446 35.3522 53.902 34.365 54.3319 33.2254C54.7618 32.0856 54.845 30.8443 54.571 29.6575C54.297 28.4706 53.6781 27.3912 52.7921 26.5553C51.9062 25.7193 50.7927 25.1641 49.5919 24.9595C48.3912 24.7549 47.1567 24.91 46.0439 25.4053C43.1729 26.6992 39.9063 26.8029 36.9589 25.694C34.0116 24.585 31.6237 22.3537 30.3177 19.4882C29.8257 18.354 29.0046 17.3936 27.9606 16.7314C26.9165 16.0691 25.6978 15.7355 24.4621 15.7738C23.2263 15.8121 22.0306 16.2204 21.0296 16.946C20.0285 17.6716 19.2684 18.681 18.8475 19.8434L18.8066 19.8487Z" fill="white"/>
<path d="M21.8205 35.4818C21.6879 34.6711 21.3949 33.8951 20.9586 33.199C20.5223 32.503 19.9515 31.901 19.2796 31.4283C16.7269 29.5876 15.0067 26.8109 14.4953 23.7056C13.9839 20.6001 14.7229 17.4185 16.5506 14.8563C17.0305 14.1933 17.3738 13.4416 17.5605 12.6448C17.7472 11.848 17.7737 11.0221 17.6383 10.2149C17.4637 9.22245 17.0487 8.28775 16.4298 7.49253C15.8108 6.69725 15.0066 6.06565 14.0874 5.65274C13.1682 5.23976 12.1618 5.05814 11.1563 5.12355C10.1506 5.18905 9.17636 5.49959 8.31838 6.02823C7.46048 6.55685 6.74492 7.28738 6.23425 8.15615C5.72357 9.02493 5.43338 10.0054 5.38886 11.0122C5.34435 12.0189 5.54688 13.0213 5.97885 13.9317C6.41083 14.8422 7.05903 15.6331 7.86701 16.2353C9.14514 17.1452 10.2312 18.2982 11.063 19.6285C11.8947 20.9588 12.456 22.44 12.7143 23.9875C12.9727 25.535 12.9233 27.1183 12.5688 28.6466C12.2143 30.1749 11.5618 31.6183 10.6487 32.894C10.0726 33.7222 9.70831 34.6789 9.58759 35.6805C9.4668 36.6821 9.59329 37.6979 9.95596 38.6393C10.3186 39.5807 10.9064 40.4188 11.6679 41.0804C12.4294 41.7421 13.3415 42.2071 14.3243 42.4348C15.3071 42.6624 16.3307 42.6458 17.3056 42.3864C18.2805 42.1269 19.1769 41.6326 19.9166 40.9464C20.6562 40.2604 21.2164 39.4037 21.5484 38.451C21.8802 37.4984 21.9737 36.4789 21.8205 35.4818Z" fill="white"/>
</g>
</svg>
