<svg width="146" height="39" viewBox="0 0 146 39" fill="none" xmlns="http://www.w3.org/2000/svg">
<g style="mix-blend-mode:overlay">
<path d="M22.192 21.254C22.4173 21.254 22.5907 21.3667 22.712 21.592C22.8507 21.8 22.92 22.0687 22.92 22.398C22.92 22.7967 22.8593 23.1087 22.738 23.334C22.6167 23.5593 22.426 23.7587 22.166 23.932C21.1433 24.608 19.514 25.7173 17.278 27.26C16.602 30.848 15.7267 33.6733 14.652 35.736C13.5773 37.7987 12.2167 38.83 10.57 38.83C9.686 38.83 8.96667 38.5527 8.412 37.998C7.85733 37.4607 7.58 36.75 7.58 35.866C7.58 35.0513 7.762 34.228 8.126 33.396C8.49 32.564 9.166 31.602 10.154 30.51C11.1593 29.418 12.572 28.17 14.392 26.766L14.47 26.272C13.1007 26.844 11.7573 27.13 10.44 27.13C8.49867 27.13 6.79133 26.7573 5.318 26.012C3.84467 25.2493 2.70067 24.1747 1.886 22.788C1.07133 21.4013 0.664 19.7893 0.664 17.952C0.664 15.3867 1.14933 13.1247 2.12 11.166C3.09067 9.19 4.42533 7.66467 6.124 6.59C7.84 5.498 9.75533 4.952 11.87 4.952C13.898 4.952 15.4147 5.42867 16.42 6.382C17.4427 7.318 17.954 8.566 17.954 10.126C17.954 11.1487 17.7633 11.972 17.382 12.596C17.018 13.2027 16.4893 13.506 15.796 13.506C15.328 13.506 14.9467 13.3933 14.652 13.168C14.3747 12.9427 14.236 12.6307 14.236 12.232C14.236 12.0587 14.2707 11.764 14.34 11.348C14.444 10.8627 14.496 10.4813 14.496 10.204C14.496 9.476 14.2707 8.91267 13.82 8.514C13.3867 8.11533 12.65 7.916 11.61 7.916C10.3447 7.916 9.166 8.28 8.074 9.008C6.99933 9.736 6.13267 10.828 5.474 12.284C4.81533 13.7227 4.486 15.456 4.486 17.484C4.486 19.564 5.04933 21.176 6.176 22.32C7.32 23.4467 8.96667 24.01 11.116 24.01C12.312 24.01 13.56 23.7413 14.86 23.204L15.224 20.032H12.572C12.0867 20.032 11.714 19.9193 11.454 19.694C11.194 19.4513 11.064 19.0613 11.064 18.524C11.064 18.0387 11.194 17.6573 11.454 17.38C11.714 17.1027 12.0607 16.964 12.494 16.964H17.356C17.7373 16.964 18.0493 17.094 18.292 17.354C18.552 17.5967 18.656 17.952 18.604 18.42C18.552 18.9747 18.3787 20.2313 18.084 22.19L17.798 24.166C19.1847 23.126 20.45 22.2247 21.594 21.462C21.8193 21.3233 22.0187 21.254 22.192 21.254ZM10.856 36.308C11.3067 36.308 11.8007 35.7967 12.338 34.774C12.8753 33.7513 13.378 32.1047 13.846 29.834C12.5287 30.9607 11.5753 31.9747 10.986 32.876C10.414 33.7947 10.128 34.6007 10.128 35.294C10.128 35.97 10.3707 36.308 10.856 36.308ZM45.5802 21.202C45.8056 21.202 45.9789 21.306 46.1002 21.514C46.2389 21.722 46.3082 22.008 46.3082 22.372C46.3082 23.048 46.1436 23.5853 45.8142 23.984C44.9822 24.9893 44.1416 25.7693 43.2922 26.324C42.4429 26.8613 41.4376 27.13 40.2762 27.13C39.1496 27.13 38.1876 26.8267 37.3902 26.22C36.6102 25.6133 35.8649 24.5733 35.1542 23.1C34.5822 21.9213 34.1316 21.0547 33.8022 20.5C33.4729 19.928 33.1436 19.5207 32.8142 19.278C32.5022 19.0353 32.1122 18.888 31.6442 18.836C31.5749 19.2 31.3756 20.344 31.0462 22.268C30.9076 23.1347 30.8209 23.6633 30.7862 23.854C30.6129 24.9113 30.2662 25.726 29.7462 26.298C29.2262 26.8527 28.4376 27.13 27.3802 27.13C26.2189 27.13 25.1876 26.792 24.2862 26.116C23.4022 25.4227 22.7176 24.4693 22.2322 23.256C21.7469 22.0253 21.5042 20.63 21.5042 19.07C21.5042 16.158 22.0069 13.6447 23.0122 11.53C24.0349 9.41533 25.4562 7.80333 27.2762 6.694C29.1136 5.56733 31.2282 5.004 33.6202 5.004C35.2842 5.004 36.6796 5.25533 37.8062 5.758C38.9329 6.26067 39.7649 6.954 40.3022 7.838C40.8569 8.722 41.1342 9.71867 41.1342 10.828C41.1342 11.7987 40.9002 12.752 40.4322 13.688C39.9816 14.6067 39.2969 15.4213 38.3782 16.132C37.4596 16.8427 36.3416 17.3713 35.0242 17.718C35.8562 17.9433 36.4976 18.3073 36.9482 18.81C37.3989 19.3127 37.8496 20.0493 38.3002 21.02C38.7856 22.06 39.2622 22.8227 39.7302 23.308C40.2156 23.7933 40.7702 24.036 41.3942 24.036C41.9489 24.036 42.4776 23.854 42.9802 23.49C43.4829 23.1087 44.1156 22.4673 44.8782 21.566C45.0862 21.3233 45.3202 21.202 45.5802 21.202ZM28.0562 18.81C27.4669 18.81 27.0596 18.6713 26.8342 18.394C26.6262 18.1167 26.5222 17.8047 26.5222 17.458C26.5222 17.042 26.6522 16.7127 26.9122 16.47C27.1896 16.2273 27.5016 16.106 27.8482 16.106H28.4982C28.7756 14.4073 29.0356 12.9427 29.2782 11.712C29.5036 10.5853 30.2316 10.022 31.4622 10.022C32.4502 10.022 32.9442 10.464 32.9442 11.348C32.9442 11.5387 32.9356 11.686 32.9182 11.79L32.1382 16.106C33.0742 16.054 33.9236 15.8287 34.6862 15.43C35.4662 15.0313 36.0816 14.4767 36.5322 13.766C37.0002 13.0553 37.2342 12.2493 37.2342 11.348C37.2342 10.256 36.8616 9.398 36.1162 8.774C35.3709 8.15 34.2789 7.838 32.8402 7.838C31.1416 7.838 29.6509 8.26267 28.3682 9.112C27.1029 9.944 26.1149 11.192 25.4042 12.856C24.6936 14.5027 24.3382 16.5133 24.3382 18.888C24.3382 19.9973 24.4509 20.9507 24.6762 21.748C24.9016 22.5453 25.1789 23.1433 25.5082 23.542C25.8376 23.9407 26.1496 24.14 26.4442 24.14C26.6696 24.14 26.8516 24.0273 26.9902 23.802C27.1462 23.5767 27.2676 23.2127 27.3542 22.71L28.0562 18.81ZM51.5832 27.13C50.1272 27.13 49.0265 26.7313 48.2812 25.934C47.5358 25.1193 47.1632 24.036 47.1632 22.684C47.1632 21.9213 47.2758 20.994 47.5012 19.902L49.1132 12.466C49.1478 12.3273 49.2258 11.946 49.3472 11.322C49.4858 10.698 49.5552 10.022 49.5552 9.294C49.5552 8.878 49.4685 8.566 49.2952 8.358C49.1392 8.15 48.9225 8.046 48.6452 8.046C48.1252 8.046 47.5185 8.29733 46.8252 8.8C46.1318 9.28533 45.4038 10.0393 44.6412 11.062C44.3985 11.3913 44.1298 11.556 43.8352 11.556C43.5925 11.556 43.3758 11.4433 43.1852 11.218C43.0118 10.9753 42.9252 10.7067 42.9252 10.412C42.9252 9.87467 43.1678 9.268 43.6532 8.592C45.4212 6.16533 47.4925 4.952 49.8672 4.952C50.9245 4.952 51.7478 5.27267 52.3372 5.914C52.9438 6.55533 53.2472 7.5 53.2472 8.748C53.2472 9.632 53.1865 10.4467 53.0652 11.192C52.9438 11.9373 52.7358 12.9513 52.4412 14.234L51.3752 18.992C51.3405 19.148 51.2798 19.4253 51.1932 19.824C51.1065 20.2227 51.0372 20.604 50.9852 20.968C50.9332 21.3147 50.9072 21.6613 50.9072 22.008C50.9072 22.5627 51.0632 23.0047 51.3752 23.334C51.6872 23.6633 52.1292 23.828 52.7012 23.828C53.7412 23.828 54.7898 23.2733 55.8472 22.164C56.9218 21.0547 57.9098 19.2693 58.8112 16.808C59.7298 14.3293 60.4405 11.166 60.9432 7.318C61.0645 6.434 61.2378 5.81867 61.4632 5.472C61.7058 5.12533 62.1652 4.952 62.8412 4.952C63.4478 4.952 63.8985 5.134 64.1932 5.498C64.4878 5.862 64.6352 6.45133 64.6352 7.266C64.6352 7.734 64.5745 8.34933 64.4532 9.112C64.3492 9.87467 64.1845 10.9407 63.9592 12.31C63.4912 14.962 63.1185 17.3973 62.8412 19.616C62.7025 20.6213 62.6332 21.3667 62.6332 21.852C62.6332 22.5627 62.7892 23.1087 63.1012 23.49C63.4305 23.854 63.8638 24.036 64.4012 24.036C64.9732 24.036 65.5278 23.8453 66.0652 23.464C66.6198 23.0827 67.2698 22.45 68.0152 21.566C68.2232 21.3233 68.4572 21.202 68.7172 21.202C68.9425 21.202 69.1158 21.306 69.2372 21.514C69.3758 21.722 69.4452 22.008 69.4452 22.372C69.4452 23.048 69.2805 23.5853 68.9512 23.984C68.0498 25.076 67.1572 25.8733 66.2732 26.376C65.3892 26.8787 64.4618 27.13 63.4912 27.13C62.0525 27.13 60.9518 26.766 60.1892 26.038C59.4265 25.2927 59.0452 24.3307 59.0452 23.152C59.0452 22.4933 59.1838 21.2107 59.4612 19.304C58.5945 21.852 57.4938 23.7933 56.1592 25.128C54.8418 26.4627 53.3165 27.13 51.5832 27.13ZM87.48 11.504C87.48 12.9773 87.0987 14.3293 86.336 15.56C85.5734 16.7907 84.464 17.796 83.008 18.576C81.552 19.356 79.8187 19.8153 77.808 19.954L76.69 26.22C76.2567 28.6293 75.078 29.834 73.154 29.834C72.0967 29.834 71.1174 29.522 70.216 28.898C69.332 28.274 68.6214 27.3207 68.084 26.038C67.5467 24.7553 67.278 23.178 67.278 21.306C67.278 17.7873 67.8414 14.806 68.968 12.362C70.112 9.90067 71.6374 8.06333 73.544 6.85C75.468 5.61933 77.5827 5.004 79.888 5.004C81.5174 5.004 82.8954 5.29 84.022 5.862C85.166 6.434 86.024 7.214 86.596 8.202C87.1854 9.17267 87.48 10.2733 87.48 11.504ZM78.276 17.276C81.8294 16.8253 83.606 14.9793 83.606 11.738C83.606 10.594 83.2247 9.66667 82.462 8.956C81.7167 8.228 80.5554 7.864 78.978 7.864C77.1927 7.864 75.6327 8.42733 74.298 9.554C72.9807 10.6807 71.958 12.2493 71.23 14.26C70.5194 16.2533 70.164 18.5327 70.164 21.098C70.164 22.1727 70.268 23.126 70.476 23.958C70.7014 24.79 70.9787 25.44 71.308 25.908C71.6547 26.3587 71.984 26.584 72.296 26.584C72.7294 26.584 73.0587 25.986 73.284 24.79L74.142 19.876C73.466 19.772 73.1714 19.7287 73.258 19.746C72.738 19.6593 72.4 19.5033 72.244 19.278C72.088 19.0353 72.01 18.732 72.01 18.368C72.01 17.9867 72.114 17.6833 72.322 17.458C72.5474 17.2327 72.8507 17.12 73.232 17.12C73.4054 17.12 73.5354 17.1287 73.622 17.146C74.038 17.2153 74.3587 17.2587 74.584 17.276C74.8094 15.924 75.13 14.1127 75.546 11.842C75.65 11.2527 75.884 10.8367 76.248 10.594C76.6294 10.334 77.0714 10.204 77.574 10.204C78.146 10.204 78.5534 10.3167 78.796 10.542C79.056 10.75 79.186 11.088 79.186 11.556C79.186 11.8333 79.1687 12.0587 79.134 12.232L78.276 17.276ZM96.8839 27.13C95.3412 27.13 93.9459 26.7833 92.6979 26.09C91.4672 25.3967 90.4879 24.3827 89.7599 23.048C89.0319 21.696 88.6679 20.084 88.6679 18.212C88.6679 15.5773 89.1446 13.2547 90.0979 11.244C91.0686 9.23333 92.3772 7.682 94.0239 6.59C95.6879 5.498 97.5252 4.952 99.5359 4.952C101.079 4.952 102.465 5.29867 103.696 5.992C104.944 6.68533 105.932 7.708 106.66 9.06C107.388 10.3947 107.752 11.998 107.752 13.87C107.752 16.5047 107.267 18.8273 106.296 20.838C105.343 22.8487 104.034 24.4 102.37 25.492C100.723 26.584 98.8946 27.13 96.8839 27.13ZM97.1439 24.062C98.4959 24.062 99.6832 23.646 100.706 22.814C101.746 21.982 102.543 20.8293 103.098 19.356C103.653 17.8653 103.93 16.184 103.93 14.312C103.93 12.2493 103.497 10.6893 102.63 9.632C101.763 8.55733 100.645 8.02 99.2759 8.02C97.9412 8.02 96.7626 8.436 95.7399 9.268C94.7172 10.0827 93.9199 11.2353 93.3479 12.726C92.7759 14.1993 92.4899 15.8807 92.4899 17.77C92.4899 19.8327 92.9232 21.4013 93.7899 22.476C94.6566 23.5333 95.7746 24.062 97.1439 24.062ZM119.899 1.116H115.651V0.0719991H121.087V27H119.899V1.116ZM135.171 27.432C133.323 27.432 131.607 26.976 130.023 26.064C128.463 25.152 127.215 23.928 126.279 22.392C125.367 20.856 124.911 19.176 124.911 17.352C124.911 14.64 126.147 11.868 128.619 9.036L136.503 -2.14577e-06H137.871L130.311 8.46C130.935 8.028 131.727 7.68 132.687 7.416C133.647 7.152 134.571 7.02 135.459 7.02C137.187 7.02 138.807 7.488 140.319 8.424C141.855 9.36 143.067 10.62 143.955 12.204C144.867 13.788 145.323 15.492 145.323 17.316C145.323 19.14 144.867 20.832 143.955 22.392C143.043 23.928 141.807 25.152 140.247 26.064C138.711 26.976 137.019 27.432 135.171 27.432ZM135.171 26.424C136.803 26.424 138.303 26.016 139.671 25.2C141.039 24.384 142.119 23.28 142.911 21.888C143.727 20.472 144.135 18.936 144.135 17.28C144.135 15.624 143.727 14.088 142.911 12.672C142.095 11.256 141.003 10.14 139.635 9.324C138.267 8.484 136.779 8.064 135.171 8.064C133.563 8.064 132.063 8.484 130.671 9.324C129.279 10.164 128.163 11.292 127.323 12.708C126.507 14.124 126.099 15.648 126.099 17.28C126.099 18.936 126.507 20.472 127.323 21.888C128.139 23.28 129.243 24.384 130.635 25.2C132.027 26.016 133.539 26.424 135.171 26.424Z" fill="white"/>
</g>
</svg>
