<?xml version="1.0" encoding="utf-8"?>
<!-- Generator: Adobe Illustrator 24.1.1, SVG Export Plug-In . SVG Version: 6.00 Build 0)  -->
<svg version="1.1" id="Camada_1" xmlns="http://www.w3.org/2000/svg" xmlns:xlink="http://www.w3.org/1999/xlink" x="0px" y="0px"
	 viewBox="0 0 100 86" style="enable-background:new 0 0 100 86;" xml:space="preserve">
<style type="text/css">
	.st0{fill:url(#SVGID_1_);}
	.st1{fill:url(#SVGID_2_);}
	.st2{fill:url(#SVGID_3_);}
</style>
<g>
	<g>
		<linearGradient id="SVGID_1_" gradientUnits="userSpaceOnUse" x1="0.5" y1="43.0096" x2="49.0927" y2="43.0096">
			<stop  offset="0" style="stop-color:#01F5BD"/>
			<stop  offset="1" style="stop-color:#5883FF"/>
		</linearGradient>
		<path class="st0" d="M2.2,47.2l36.7,36.7c2.3,2.3,6.1,2.3,8.4,0c2.3-2.3,2.3-6.1,0-8.4L14.9,43l32.4-32.4c2.3-2.3,2.3-6.1,0-8.4
			c-1.2-1.2-2.7-1.7-4.2-1.7c-1.5,0-3.1,0.6-4.2,1.7L2.2,38.8C-0.1,41.1-0.1,44.9,2.2,47.2z"/>
		<linearGradient id="SVGID_2_" gradientUnits="userSpaceOnUse" x1="25.7041" y1="43.0096" x2="74.2953" y2="43.0096">
			<stop  offset="0" style="stop-color:#D61F8F"/>
			<stop  offset="1" style="stop-color:#FF4440"/>
		</linearGradient>
		<path class="st1" d="M27.5,47.2l36.7,36.7c2.3,2.3,6.1,2.3,8.4,0c2.3-2.3,2.3-6.1,0-8.4L40.1,43l32.4-32.4c2.3-2.3,2.3-6.1,0-8.4
			c-1.2-1.2-2.7-1.7-4.2-1.7c-1.5,0-3.1,0.6-4.2,1.7L27.5,38.8C25.1,41.1,25.1,44.9,27.5,47.2z"/>
		<linearGradient id="SVGID_3_" gradientUnits="userSpaceOnUse" x1="50.9074" y1="43.0096" x2="99.5" y2="43.0096">
			<stop  offset="0" style="stop-color:#FF4440"/>
			<stop  offset="1" style="stop-color:#FFC304"/>
		</linearGradient>
		<path class="st2" d="M52.7,47.2l36.7,36.7c2.3,2.3,6.1,2.3,8.4,0c2.3-2.3,2.3-6.1,0-8.4L65.3,43l32.4-32.4c2.3-2.3,2.3-6.1,0-8.4
			c-1.2-1.2-2.7-1.7-4.2-1.7c-1.5,0-3.1,0.6-4.2,1.7L52.7,38.8C50.3,41.1,50.3,44.9,52.7,47.2z"/>
	</g>
</g>
</svg>
