<?xml version="1.0" encoding="utf-8"?>
<!-- Generator: Adobe Illustrator 24.1.1, SVG Export Plug-In . SVG Version: 6.00 Build 0)  -->
<svg version="1.1" id="Camada_1" xmlns="http://www.w3.org/2000/svg" xmlns:xlink="http://www.w3.org/1999/xlink" x="0px" y="0px"
	 viewBox="0 0 100 83.8" style="enable-background:new 0 0 100 83.8;" xml:space="preserve">
<style type="text/css">
	.st0{fill:#FFFFFF;}
	.st1{fill:url(#SVGID_1_);}
	.st2{fill:url(#SVGID_2_);}
	.st3{fill:url(#SVGID_3_);}
</style>
<g>
	<g>
		<g>
			<g>
				<path class="st0" d="M25.6,62h61c3.1,0,5.6-2.5,5.6-5.6s-2.5-5.6-5.6-5.6H33L11.8,0H0L25.6,62z"/>
			</g>
			<g>
				<path class="st0" d="M71.5,74.8c0,5,4,9,9,9s9-4,9-9s-4-9-9-9C75.6,65.9,71.5,69.9,71.5,74.8z"/>
			</g>
			<g>
				<path class="st0" d="M27.4,74.8c0,5,4,9,9,9s9-4,9-9s-4-9-9-9C31.4,65.9,27.4,69.9,27.4,74.8z"/>
			</g>
		</g>
	</g>
	<g>
		
			<linearGradient id="SVGID_1_" gradientUnits="userSpaceOnUse" x1="33" y1="43.3" x2="88.5" y2="43.3" gradientTransform="matrix(1 0 0 -1 0 83.8)">
			<stop  offset="0" style="stop-color:#01F5BD"/>
			<stop  offset="1" style="stop-color:#5883FF"/>
		</linearGradient>
		<polygon class="st1" points="33,35.4 36.9,45.6 60.8,45.6 84.7,45.6 88.5,35.4 60.8,35.4 		"/>
		
			<linearGradient id="SVGID_2_" gradientUnits="userSpaceOnUse" x1="27.4" y1="58.05" x2="94.2" y2="58.05" gradientTransform="matrix(1 0 0 -1 0 83.8)">
			<stop  offset="2.501782e-03" style="stop-color:#D61F8F"/>
			<stop  offset="1" style="stop-color:#FF4440"/>
		</linearGradient>
		<polygon class="st2" points="27.4,20.6 31.6,30.9 60.8,30.9 90,30.9 94.2,20.6 60.8,20.6 		"/>
		
			<linearGradient id="SVGID_3_" gradientUnits="userSpaceOnUse" x1="21.6" y1="72.8" x2="100" y2="72.8" gradientTransform="matrix(1 0 0 -1 0 83.8)">
			<stop  offset="0" style="stop-color:#FF4440"/>
			<stop  offset="1" style="stop-color:#FFC304"/>
		</linearGradient>
		<polygon class="st3" points="60.8,5.9 21.6,5.9 25.9,16.1 60.8,16.1 95.7,16.1 100,5.9 		"/>
	</g>
</g>
</svg>
