<?xml version="1.0" encoding="utf-8"?>
<!-- Generator: Adobe Illustrator 24.1.1, SVG Export Plug-In . SVG Version: 6.00 Build 0)  -->
<svg version="1.1" id="Camada_1" xmlns="http://www.w3.org/2000/svg" xmlns:xlink="http://www.w3.org/1999/xlink" x="0px" y="0px"
	 viewBox="0 0 100 100" style="enable-background:new 0 0 100 100;" xml:space="preserve">
<style type="text/css">
	.st0{fill:#FFFFFF;}
</style>
<g>
	<circle class="st0" cx="50" cy="50" r="49.5"/>
	<g>
		<path d="M45.6,68.7c-6.1,0-11.8-2.4-16.1-6.7c-4.3-4.3-6.7-10-6.7-16.1s2.4-11.8,6.7-16.1c4.3-4.3,10-6.7,16.1-6.7
			s11.8,2.4,16.1,6.7c4.3,4.3,6.7,10,6.7,16.1S66,57.8,61.7,62.1C57.4,66.4,51.7,68.7,45.6,68.7z M45.6,31.2c-4,0-7.7,1.5-10.5,4.3
			c-2.8,2.8-4.3,6.5-4.3,10.5c0,4,1.5,7.7,4.3,10.5c2.8,2.8,6.5,4.3,10.5,4.3s7.7-1.5,10.5-4.3c0,0,0,0,0,0
			c2.8-2.8,4.3-6.5,4.3-10.5c0-4-1.5-7.7-4.3-10.5C53.3,32.7,49.6,31.2,45.6,31.2z"/>
		<path d="M72.7,77.1c-1,0-2-0.4-2.8-1.2L56.1,62.1c-1.5-1.5-1.5-4,0-5.6c1.5-1.5,4-1.5,5.6,0l13.8,13.8c1.5,1.5,1.5,4,0,5.6
			C74.7,76.7,73.7,77.1,72.7,77.1z"/>
	</g>
</g>
</svg>
