<?xml version="1.0" encoding="utf-8"?>
<!-- Generator: Adobe Illustrator 24.1.1, SVG Export Plug-In . SVG Version: 6.00 Build 0)  -->
<svg version="1.1" id="Camada_1" xmlns="http://www.w3.org/2000/svg" xmlns:xlink="http://www.w3.org/1999/xlink" x="0px" y="0px"
	 viewBox="0 0 100 43" style="enable-background:new 0 0 100 43;" xml:space="preserve">
<style type="text/css">
	.st0{fill:url(#SVGID_1_);}
	.st1{fill:#FFFFFF;}
</style>
<g>
	<g>
		<g>
			<linearGradient id="SVGID_1_" gradientUnits="userSpaceOnUse" x1="0.5" y1="21.5" x2="99.5" y2="21.5">
				<stop  offset="0" style="stop-color:#01F5BD"/>
				<stop  offset="1" style="stop-color:#5883FF"/>
			</linearGradient>
			<path class="st0" d="M96.6,16.4l-0.3,0c-1.2,0-2.2-0.7-2.6-1.8l-2.6-6.3c-0.5-1.1-1.5-1.8-2.7-1.8H76.6c-1.6,0-2.9-1.3-2.9-2.9
				c0-1.6-1.3-2.9-2.9-2.9H35c-0.1,0-0.1,0-0.2,0H14.5c-0.9,0-1.6,0.7-1.6,1.6v0c0,0.9,0.7,1.6,1.6,1.6h15.1h2.3h1.3
				c0.9,0,1.6,0.7,1.6,1.6s-0.7,1.6-1.6,1.6h-1.3h-2.3v0H17.3c-0.9,0-1.6,0.7-1.6,1.6c0,0.9,0.7,1.6,1.6,1.6l13,0
				c0.8,0.1,1.3,0.8,1.3,1.6c0,0.9-0.7,1.6-1.6,1.6h-0.4h-9.2c-0.9,0-1.6,0.7-1.6,1.6c0,0.9,0.7,1.6,1.6,1.6h9.2h4h2.1
				c0.9,0,1.6,0.7,1.6,1.6v0c0,0.9-0.7,1.6-1.6,1.6h-3h-3.2H7.8h-3c-0.9,0-1.6,0.7-1.6,1.6c0,0.9,0.7,1.6,1.6,1.6h24.7h3.2h0.6
				c0.9,0,1.6,0.7,1.6,1.6c0,0.8-0.5,1.4-1.2,1.6h-6.9c-0.9,0-1.7,0.7-1.7,1.7s0.7,1.7,1.7,1.7h4.7c0.1,0,0.1,0,0.2,0.1
				c-0.7,0.2-1.2,0.8-1.2,1.6c0,0.7,0.4,1.3,1,1.5c0,0,0,0,0,0h0c0.2,0.1,0.4,0.1,0.6,0.1h5.6c-0.1,0.6-0.2,1.2-0.2,1.8
				c0,4,3.3,7.3,7.3,7.3c4,0,7.3-3.3,7.3-7.3c0-0.7-0.1-1.3-0.2-1.9l27.4,0.1c0,0.1,0,0.1,0,0.2c-0.1,0.5-0.2,1-0.2,1.6
				c0,4,3.3,7.3,7.3,7.3c4,0,7.3-3.3,7.3-7.3c0-0.5-0.1-1.1-0.2-1.6c0-0.1,0.1-0.3,0.1-0.4l3.9-0.2c1-0.1,1.8-0.9,1.8-1.9V19.3
				C99.5,17.7,98.2,16.4,96.6,16.4z M9.5,10.4h2.2c0.9,0,1.6-0.7,1.6-1.6v0c0-0.9-0.7-1.6-1.6-1.6H9.5c-0.9,0-1.6,0.7-1.6,1.6v0
				C7.9,9.7,8.6,10.4,9.5,10.4z M20,26.6H8.8c-0.9,0-1.7,0.7-1.7,1.7S7.9,30,8.8,30H20c0.9,0,1.7-0.7,1.7-1.7S21,26.6,20,26.6z
				 M17,15.3c0-0.9-0.7-1.6-1.6-1.6H2.1c-0.9,0-1.6,0.7-1.6,1.6c0,0.9,0.7,1.6,1.6,1.6h13.2C16.3,16.9,17,16.2,17,15.3z"/>
		</g>
	</g>
	<g>
		<path class="st1" d="M37.7,14.1V3.9h5.4v1.5h-3.5V8h3.3v1.5h-3.3v4.6H37.7z"/>
		<path class="st1" d="M46.3,9.7v4.4h-1.9V3.9H48c1.6,0,2.9,0.6,2.9,2.4c0,1.1-0.3,2.3-1.6,2.5v0c1.1,0.1,1.5,0.9,1.5,1.9
			c0,0.4-0.1,2.9,0.4,3.2v0.2h-2.1c-0.2-0.7-0.2-1.9-0.2-2.6c0-0.6,0-1.5-0.7-1.7c-0.5-0.1-1.1-0.1-1.6-0.1H46.3z M46.3,8.3h1.5
			c0.6,0,1.1-0.4,1.1-1.5c0-1.1-0.5-1.3-1.2-1.3h-1.4V8.3z"/>
		<path class="st1" d="M52.6,14.1V3.9H58v1.5h-3.5V8h3.2v1.5h-3.2v3.1H58v1.5H52.6z"/>
		<path class="st1" d="M58.8,3.9h6.4v1.5h-2.2v8.7H61V5.4h-2.2V3.9z"/>
		<path class="st1" d="M66.2,14.1V3.9h5.4v1.5h-3.5V8h3.2v1.5h-3.2v3.1h3.5v1.5H66.2z"/>
	</g>
	<g>
		<path class="st1" d="M37.5,23.7c0.1-2.9,0.3-5,3.7-5c1.8,0,3.1,0.5,3.6,2.5c0.1,0.5,0.1,0.9,0.1,1.4h-2.1c0-1.2-0.1-2.1-1.5-2.1
			c-1.7,0-1.5,2-1.5,2.9v3.2c0,0.9,0.1,2.5,1.5,2.5c1.2,0,1.6-1.3,1.6-3h-1.5v-1.7h3.5v6.1h-1.6V29h0c-0.4,1.2-1.2,1.5-2,1.6
			c-3.5,0-3.7-2.2-3.7-5.2V23.7z"/>
		<path class="st1" d="M49,25.4v4.9h-2.1V18.9h4c1.8,0,3.2,0.6,3.2,2.7c0,1.2-0.3,2.5-1.7,2.7v0c1.3,0.2,1.6,1,1.6,2.1
			c0,0.5-0.1,3.3,0.5,3.6v0.2h-2.3c-0.3-0.7-0.2-2.1-0.2-2.9c0-0.7,0-1.7-0.7-1.9c-0.6-0.2-1.2-0.2-1.8-0.2H49z M49,23.7h1.7
			c0.7,0,1.2-0.5,1.2-1.6c0-1.3-0.5-1.5-1.3-1.5H49V23.7z"/>
		<path class="st1" d="M55.3,30.3L58,18.9h2.9l2.6,11.4h-2.3l-0.6-2.9h-2.5l-0.6,2.9H55.3z M59.6,15.7h2.3l-2.2,2.2h-1.5L59.6,15.7z
			 M58.5,25.7h1.8l-0.6-3.2c-0.1-0.5-0.2-1-0.2-1.6c0-0.3,0-0.5-0.1-0.8h0c0,0.2-0.1,0.5-0.1,0.8c-0.1,0.5-0.1,1-0.2,1.6L58.5,25.7z
			"/>
		<path class="st1" d="M63.9,18.9h7.1v1.7h-2.5v9.7h-2.1v-9.7h-2.5V18.9z"/>
		<path class="st1" d="M72.2,30.3V18.9h2.1v11.4H72.2z"/>
		<path class="st1" d="M80.7,22.3c0-1-0.1-2-1.2-2c-0.7,0-1.2,0.3-1.2,1.1c0,0.9,0.5,1.2,1.2,1.6c0.7,0.4,2,1.3,2.6,1.9
			c0.7,0.7,1,1.4,1,2.4c0,2.2-1.4,3.3-3.5,3.3c-2.5,0-3.5-1.4-3.5-3.5v-0.8h2.1v0.7c0,1.1,0.3,1.9,1.3,1.9c0.9,0,1.3-0.5,1.3-1.3
			c0-0.7-0.3-1.1-0.8-1.5c-1.1-0.9-2.5-1.5-3.3-2.6c-0.3-0.5-0.5-1.1-0.5-1.7c0-1.9,1.1-3,3.3-3c3.4,0,3.3,2.6,3.3,3.7H80.7z"/>
	</g>
</g>
</svg>
