<?xml version="1.0" encoding="utf-8"?>
<!-- Generator: Adobe Illustrator 24.1.1, SVG Export Plug-In . SVG Version: 6.00 Build 0)  -->
<svg version="1.1" id="Camada_1" xmlns="http://www.w3.org/2000/svg" xmlns:xlink="http://www.w3.org/1999/xlink" x="0px" y="0px"
	 viewBox="0 0 100 100" style="enable-background:new 0 0 100 100;" xml:space="preserve">
<style type="text/css">
	.st0{fill:#FFFFFF;}
</style>
<g>
	<circle class="st0" cx="50" cy="50.3" r="49.5"/>
	<path d="M65.1,84.5c0.1-3.8-0.5-7.3-3.2-10.4c2.2-0.5,4.3-0.8,6.3-1.3c10-2.6,15.5-9.2,16.4-19.5c0.6-6.3-0.2-12.2-4.4-17.3
		c-0.4-0.4-0.3-1.4-0.1-2.1c0.9-3.5,0.5-7-0.4-10.4c-0.4-1.4-1.1-1.7-2.5-1.6c-3.9,0.4-7.2,2.3-10.5,4.2c-0.9,0.5-2.2,0.8-3.3,0.6
		c-7.3-1.6-14.5-1.7-21.8,0.1c-1.3,0.3-2.3,0-3.5-0.5c-3.3-1.6-6.8-2.9-10.3-4.2c-1.4-0.5-2.3,0.2-2.7,1.7
		c-0.9,3.5-1.2,6.9-0.3,10.4c0.2,0.6,0,1.6-0.3,2.1c-10.8,15.4-2.7,34.6,15.9,37.5c0.8,0.1,1.5,0.3,2.1,0.4
		c-0.8,2.1-1.6,4.1-2.4,6.1c-0.2,0.4-0.7,0.9-1.2,1.1c-5.1,2.2-10.2,0.7-13.3-4c-1.6-2.4-3.4-4.5-6.2-5.4c-1-0.3-2.1-0.4-3.1-0.3
		c-1.1,0.1-1.4,0.9-0.6,1.8c0.4,0.4,0.9,0.7,1.3,1.1c1.7,1.9,4,3.7,4.9,5.9c2.5,6.6,8.3,8.9,15.7,8c0.6-0.1,1.2-0.2,2.1-0.4
		c0,3.5,0.1,6.8-0.1,10.1c0,0.2,0,0.3-0.1,0.4c3.8,0.9,7.7,1.4,11.7,1.4c4.9,0,9.6-0.7,14-2c-0.1-0.4-0.1-0.9-0.1-1.5
		C65.1,92.4,65.1,88.4,65.1,84.5z"/>
</g>
</svg>
