<?xml version="1.0" encoding="utf-8"?>
<!-- Generator: Adobe Illustrator 24.1.1, SVG Export Plug-In . SVG Version: 6.00 Build 0)  -->
<svg version="1.1" id="Camada_1" xmlns="http://www.w3.org/2000/svg" xmlns:xlink="http://www.w3.org/1999/xlink" x="0px" y="0px"
	 viewBox="0 0 100 100" style="enable-background:new 0 0 100 100;" xml:space="preserve">
<style type="text/css">
	.st0{fill:#FFFFFF;}
</style>
<g>
	<circle class="st0" cx="50" cy="50" r="49.5"/>
	<g>
		<path d="M68.8,66.4c-2.9,0-5.4,0-8.2,0c0-3.7,0-7.3,0-10.9c0-1.2-0.1-2.3-0.4-3.4c-0.5-1.6-1.6-2.8-3.4-2.8
			c-1.8-0.1-3.1,0.9-3.7,2.5c-0.4,1.1-0.7,2.4-0.7,3.6c-0.1,3.6,0,7.3,0,11.1c-2.7,0-5.3,0-8.1,0c0-8.1,0-16.2,0-24.5
			c2.7,0,5.3,0,8.1,0c0,1.3,0,2.5,0,3.5c1.6-1.1,3-2.3,4.6-3c5.1-2.1,10.4,0.7,11.3,6.4c0.6,3.5,0.4,7.1,0.5,10.7
			C68.8,61.7,68.8,64,68.8,66.4z"/>
		<path d="M31.8,41.8c2.7,0,5.3,0,8,0c0,8.2,0,16.2,0,24.5c-2.6,0-5.2,0-8,0C31.8,58.3,31.8,50.1,31.8,41.8z"/>
		<path d="M35.8,38c-2.5,0-4.6-2.1-4.5-4.6c0-2.5,2.1-4.5,4.6-4.5c2.4,0.1,4.4,2.1,4.4,4.5C40.3,36,38.3,38,35.8,38z"/>
	</g>
</g>
</svg>
