<?xml version="1.0" encoding="utf-8"?>
<!-- Generator: Adobe Illustrator 24.1.1, SVG Export Plug-In . SVG Version: 6.00 Build 0)  -->
<svg version="1.1" id="Camada_1" xmlns="http://www.w3.org/2000/svg" xmlns:xlink="http://www.w3.org/1999/xlink" x="0px" y="0px"
	 viewBox="0 0 215.6 68.6" style="enable-background:new 0 0 215.6 68.6;" xml:space="preserve">
<style type="text/css">
	.st0{fill:url(#SVGID_1_);}
	.st1{fill:#FFFFFF;}
</style>
<g>
	
		<linearGradient id="SVGID_1_" gradientUnits="userSpaceOnUse" x1="19875.0098" y1="24984.2559" x2="19874.0488" y2="20722.0508" gradientTransform="matrix(1.140000e-02 0 0 1.140000e-02 -205.9337 -235.8781)">
		<stop  offset="0" style="stop-color:#01F5BD"/>
		<stop  offset="0.1927" style="stop-color:#5883FF"/>
		<stop  offset="0.4721" style="stop-color:#D61F8F"/>
		<stop  offset="0.7737" style="stop-color:#FF4440"/>
		<stop  offset="1" style="stop-color:#FFC304"/>
	</linearGradient>
	<path class="st0" d="M26.1,26.9l-13.4,6.9l2.4,1.9c0.5,0.4,0.6,1,0.5,1.6L14.5,41l3.5-1.8c0.6-0.3,1.2-0.2,1.7,0.2l2.3,1.9
		L26.1,26.9z M13.3,45l-0.1,0.2c-0.6,2-1.1,3.8-1.1,5.1c0,1.5,1.1,2.3,4.7,2.3h21.4l-3-36.6h-4.1h-22H5L3.2,38.6
		c-0.2,3.1,0.1,4.9,1.1,5.6c1.1,0.6,3.2,0.2,6.5-1.3l1.6-5.5l-3.2-2.7c-0.2-0.1-0.3-0.3-0.4-0.5c-0.4-0.7-0.1-1.6,0.6-2l9.2-4.7
		l9.2-4.7l0,0c0.3-0.2,0.7-0.2,1.1-0.1c0.8,0.2,1.2,1,1,1.8l-5.7,19.8c-0.1,0.2-0.1,0.4-0.3,0.6c-0.5,0.6-1.4,0.7-2.1,0.2l-3.3-2.7
		L13.3,45z M20.1,3.2c-2.2,0-4.2,0.9-5.7,2.4S12,9.1,12,11.3v1.8h16.2v-1.8c0-2.2-0.9-4.2-2.4-5.7C24.4,4.2,22.3,3.2,20.1,3.2z
		 M20.1,0.3c3,0,5.8,1.2,7.8,3.2s3.2,4.7,3.2,7.8v1.8h5.5c0.8,0,1.4,0.6,1.5,1.4L41.2,54c0,0.1,0,0.1,0,0.2c0,0.8-0.7,1.5-1.5,1.5
		H16.8c-5.9,0-7.7-1.9-7.7-5.3c0-1.1,0.3-2.4,0.6-3.8c-3.1,1.1-5.3,1.2-7,0.2c-2.2-1.3-2.9-4.1-2.6-8.3l2.1-23.9
		c0-0.8,0.7-1.4,1.5-1.4h5.5v-1.8c0-3,1.2-5.8,3.2-7.8S17.1,0.3,20.1,0.3L20.1,0.3z"/>
	<g>
		<g>
			<path class="st1" d="M57.1,34.2c6.2,0,6.8,5.6,6.8,10.5c0,5.8-0.8,11.5-6.9,11.5s-6.8-5.6-6.9-11.5
				C50.1,39.8,50.8,34.2,57.1,34.2z M57,36.3c-3.5,0-4.5,3.7-4.4,8.4c0,6.1,0.7,9.3,4.5,9.3s4.5-3.2,4.5-9.3
				C61.6,40.1,60.6,36.3,57,36.3z"/>
			<path class="st1" d="M78.1,34.7h2.3v20.9h-3.7l-6-16.8c-0.3-1-0.6-1.9-0.8-3.2h-0.1c0,1.1,0.1,2.2,0.1,3.2v16.8h-2.3V34.7h3.7
				l6,17.2c0.2,0.7,0.4,1.3,0.8,2.3h0.1c0-0.8-0.1-1.5-0.1-2.3V34.7z"/>
			<path class="st1" d="M85,55.6V34.7h2.3v18.8h8.6v2.1H85z"/>
			<path class="st1" d="M99.4,55.6V34.7h2.3v20.9H99.4z"/>
			<path class="st1" d="M117,34.7h2.3v20.9h-3.9l-5.8-16.8c-0.3-1-0.6-1.9-0.8-3.2h-0.1c0,1.1,0.1,2.2,0.1,3.2v16.8h-2.3V34.7h3.7
				l6,17.2c0.2,0.7,0.4,1.3,0.8,2.3h0.1c0-0.8-0.1-1.5-0.1-2.3C117,51.9,117,34.7,117,34.7z"/>
			<path class="st1" d="M123.5,55.6V34.7H134v2.1h-8.2v6.9h7.7v2.1h-7.7v7.7h8.3v2.1H123.5z"/>
			<path class="st1" d="M148.2,48.6V50c0,1.2,0.4,2.3,2,2.3c1.1,0,1.7-1,1.7-2.1c0-1.8-1.4-2.4-2.8-3.2c-1.5-0.9-2.8-1.7-3.7-2.8
				c-0.9-1.1-1.4-2.3-1.4-4.2c0-4,2.4-6,6.2-6c4.3,0,6.5,2.9,6.3,6.8h-4.5c-0.1-1.2,0-2.9-1.7-3c-1-0.1-1.5,0.4-1.7,1.4
				c-0.1,1.2,0.6,1.9,1.4,2.5c1.9,1.2,3.4,1.9,4.6,3c1.1,1.1,1.8,2.4,1.8,5c0,4.1-2.2,6.3-6.3,6.3c-4.5,0-6.4-2.5-6.4-5.3v-2.2h4.5
				V48.6z"/>
			<path class="st1" d="M157.8,34.7h12.8v4.2h-4v16.8h-5V38.9h-3.9V34.7z"/>
			<path class="st1" d="M185.6,49c0,4.7-1.7,7.2-6.6,7.2c-5,0-6.7-2.4-6.7-7.2v-8.5c0-4.1,2.4-6.3,6.7-6.3s6.6,2.2,6.6,6.3V49z
				 M180.8,40.7c0-1.3-0.1-2.9-1.8-2.9c-1.5,0-1.8,1.5-1.8,2.9v8.6c0,1.2,0.2,3,1.8,3c1.5,0,1.7-1.8,1.7-3v-8.6H180.8z"/>
			<path class="st1" d="M192.9,55.6h-5V34.7h7.2c4.1,0,6.1,1.7,6.1,5.8c0,2.2-0.6,3.9-2.6,4.7v0.1c1.3,0.3,2.3,1.2,2.4,2.8
				c0.1,1.7,0.2,5.3,0.4,6.6c0.1,0.3,0.2,0.6,0.4,0.8v0.3h-5.4c-0.1-0.4-0.2-0.8-0.3-1.2c-0.1-1.9,0-3.5-0.1-4.9
				c-0.1-1.3-0.6-2.1-1.7-2.2h-1.7v8H192.9z M192.9,43.6h1.7c1.4,0,1.8-1.3,1.8-2.6c0-2.5-1-2.6-3.4-2.5V43.6z"/>
			<path class="st1" d="M203.6,55.6V34.7h11.2v4.2h-6.4v3.9h6.2v4.2h-6.2v4.5h6.7v4.2C215.2,55.6,203.6,55.6,203.6,55.6z"/>
		</g>
		<g>
			<path class="st1" d="M50.1,29.6V13.2H53c3.7,0,5.5,0.9,5.5,4.3c0,1.5-0.3,2.8-1.3,3.5c-1.1,0.9-2.9,1.1-3.5,1.1h-2.2v7.5
				C51.5,29.6,50.1,29.6,50.1,29.6z M51.6,20.9h1.2c2.5,0,4.4-0.3,4.4-3.3c0-2.5-1.3-3.1-3.5-3.2h-2.1
				C51.6,14.4,51.6,20.9,51.6,20.9z"/>
			<path class="st1" d="M62.3,21.9v7.7h-1.4V13.2H64c3,0,5.1,0.9,5.1,4.2c0,1.7-0.7,3.5-2.4,3.9l0,0c1.9,0.4,2.2,2,2.2,4
				c0,0.8-0.1,3.6,0.8,4.1v0.2h-1.5c-0.7-1.4-0.6-4.2-0.7-5.4c-0.1-2.2-1.8-2.3-3.6-2.3h-1.5V21.9z M62.3,20.6h2.5
				c0.4,0,2.9-0.2,2.9-3.1c0-2.4-1.1-3.1-3.3-3.1h-2.1V20.6z"/>
			<path class="st1" d="M71.7,20.9c0-3.4,0.4-8.2,4.9-8.2c4.9,0,4.9,5.4,4.9,8.9s-0.3,8.4-5,8.4C71.7,30,71.7,24.4,71.7,20.9z
				 M79.9,21.4c0-2.4,0-7.4-3.5-7.4c-3.3,0-3.3,4.9-3.3,7.3c0,2.5-0.1,7.5,3.5,7.5C80.1,28.7,79.9,23.8,79.9,21.4z"/>
			<path class="st1" d="M84.3,24.9v0.3c0,1.7,0,3.5,2,3.5c1.7,0,1.8-1.4,1.8-2.8V13.2h1.4v13c0,2.3-0.8,3.9-3.3,3.9
				c-2.4,0-3.3-2-3.3-4.1v-1.1H84.3z"/>
			<path class="st1" d="M92.7,29.6V13.2h7.5v1.3h-6.1v6h5.5v1.3h-5.5v6.7h6.2v1.3h-7.6V29.6z"/>
			<path class="st1" d="M111.8,24.1c0.1,2.8-1.3,6-4.6,6c-4.7,0-4.7-5.6-4.7-9c0-3.4,0.4-8.2,4.9-8.2c3,0,4.4,2.3,4.5,5.2h-1.4
				c-0.1-2-0.9-3.9-3.1-3.9c-3.4,0-3.3,5-3.3,7.3c0,2.5-0.1,7.5,3.5,7.5c2.4,0,3-2.6,3.1-4.7h1.2V24.1z"/>
			<path class="st1" d="M113.5,14.4v-1.3h8.9v1.3h-3.7v15.2h-1.4V14.4H113.5z"/>
			<path class="st1" d="M129.3,29.6V13.2h7.6v1.3h-6.2v6h5.5v1.3h-5.5v8h-1.4V29.6z"/>
			<path class="st1" d="M140.3,21.9v7.7h-1.4V13.2h3.2c3,0,5.1,0.9,5.1,4.2c0,1.7-0.7,3.5-2.4,3.9l0,0c1.9,0.4,2.2,2,2.2,4
				c0,0.8-0.1,3.6,0.8,4.1v0.2h-1.5c-0.7-1.4-0.6-4.2-0.7-5.4c-0.1-2.2-1.8-2.3-3.6-2.3h-1.5V21.9z M140.3,20.6h2.5
				c0.4,0,2.9-0.2,2.9-3.1c0-2.4-1.1-3.1-3.3-3.1h-2.1L140.3,20.6L140.3,20.6z"/>
			<path class="st1" d="M149.8,20.9c0-3.4,0.4-8.2,4.9-8.2c4.9,0,4.9,5.4,4.9,8.9s-0.2,8.3-4.9,8.3C149.8,30,149.8,24.4,149.8,20.9z
				 M158.1,21.4c0-2.4,0-7.4-3.5-7.4c-3.3,0-3.3,4.9-3.3,7.3c0,2.5-0.1,7.5,3.5,7.5C158.2,28.7,158.1,23.8,158.1,21.4z"/>
			<path class="st1" d="M170,27.3L170,27.3V13.2h1.4v16.4h-1.8l-6.1-14.1l0,0v14.1h-1.4V13.2h1.8L170,27.3z"/>
			<path class="st1" d="M173.4,14.4v-1.3h8.9v1.3h-3.7v15.2h-1.4V14.4H173.4z"/>
			<path class="st1" d="M184.2,29.6V13.2h7.5v1.3h-6.1v6h5.5v1.3h-5.5v6.7h6.2v1.3h-7.6V29.6z"/>
			<path class="st1" d="M201.7,27.3L201.7,27.3V13.2h1.4v16.4h-1.8l-6.1-14.1l0,0v14.1h-1.4V13.2h1.8L201.7,27.3z"/>
			<path class="st1" d="M206.2,13.2h3c1.9,0,3.5,0.1,4.9,1.5c1.1,1.3,1.5,3.7,1.5,5.4c0,1.9,0,4.3-0.7,6.2c-1,2.9-2.8,3.3-5.5,3.3
				h-3.2L206.2,13.2L206.2,13.2z M207.7,28.4h1.8c0.8,0,1.8,0,2.5-0.3c2.2-1,2.3-4.6,2.3-6.6c0-2.1,0-5.4-2.1-6.6
				c-0.9-0.4-2.2-0.4-3.2-0.3h-1.2v13.9H207.7z"/>
		</g>
	</g>
</g>
</svg>
